<?xml version="1.0" encoding="UTF-8"?>
<svg id="e9128880-e577-458f-bb8b-6ec9d1dc6f55" xmlns="http://www.w3.org/2000/svg" viewBox="0 0 1535.88 318.03">
    <defs>
        <style>
            .cls-1 {
            letter-spacing: -.04em;
            }

            .cls-2 {
            fill: #ebc16b;
            }

            .cls-3, .cls-4, .cls-5, .cls-6 {
            fill: #fff;
            }

            .cls-4 {
            opacity: .25;
            }

            .cls-4, .cls-5 {
            isolation: isolate;
            }

            .cls-5 {
            opacity: .38;
            }

            .cls-6 {
            font-family: Roboto-Regular, Roboto;
            font-size: 130px;
            }

            .cls-7 {
            letter-spacing: 0em;
            }
        </style>
    </defs>
    <g>
        <path class="cls-3" d="m163.92,228.05H46.14c-14.42,0-21.47-7.06-21.49-21.58-.03-27.01-.03-54.02,0-81.04.01-14.24,7.08-21.24,21.32-21.24,9.53,0,19.05.03,28.58-.02,2.83-.02,5.57.35,5.7,3.76.14,3.74-2.72,4.18-5.72,4.17-9.96-.04-19.92-.04-29.88,0-7.91.04-11.96,4.08-11.97,12.06-.03,27.88-.03,55.76,0,83.64,0,8.24,4,12.22,12.17,12.32,3.17.04,6.36-.15,9.52.05,2.95.18,4.12-.79,4-3.88-.21-5.48-.1-10.98-.04-16.47.1-9.58,5.26-14.79,14.76-14.8,60.77-.02,121.54-.02,182.3,0,9.26,0,14.54,5.31,14.61,14.49.05,5.78.09,11.56-.03,17.33-.05,2.39.73,3.4,3.22,3.3,3.89-.15,7.8.09,11.69-.08,6.65-.29,10.62-4.43,10.76-11.09.08-4.19.06-8.38.03-12.57-.02-3.06,1.16-5.14,4.45-5.15,3.3,0,4.48,2.08,4.45,5.13-.03,3.76-.26,7.53.05,11.26,1.06,12.51-10.49,20.55-20.33,20.42-11.98-.16-23.96-.04-35.94-.04h-84.44v.03Zm.67-17.47h-28.14c-21.94,0-43.87-.02-65.81.06-1.37,0-3.55.4-3.98,1.29-2.25,4.66.17,8.21,5.27,8.21h184c1.3.05,2.6.02,3.89-.08.63-.07,1.71-.53,1.73-.88.28-2.56.26-5.14-.07-7.69-.09-.53-2.77-.87-4.25-.87-30.88-.05-61.77-.06-92.65-.03h0Zm-.44-8.05h76.66c6.06,0,12.13-.09,18.19.04,2.29.05,2.97-.77,2.98-2.99.01-4.76-1.8-6.49-7.5-6.49-60.2-.02-120.4-.02-180.6,0-1.15-.06-2.31,0-3.44.22-3.79.93-4.24,3.87-4.02,7.12.24,3.52,3,2.04,4.62,2.04,31.04.09,62.08.12,93.11.07h0Z"/>
        <path class="cls-3" d="m190.54,104.19h92.7c13.98,0,21.33,7.36,21.34,21.42.02,16.76.02,33.52,0,50.29,0,1.01.37,2.32-.12,2.97-1.16,1.53-2.54,3.5-4.19,3.93-2.64.7-4.39-1.23-4.53-3.94-.19-3.75-.08-7.51-.09-11.27v-42.92c-.01-8.75-3.88-12.59-12.74-12.59-61.94-.01-123.88-.02-185.83-.03-3.19,0-7.56.92-7.45-4.08.1-4.61,4.26-3.77,7.33-3.77,31.19-.02,62.38-.03,93.56-.02h.02Z"/>
        <path class="cls-3" d="m201.71,147.74c-3.03,0-6.06.02-9.09,0-1.01.07-2.02-.02-3-.26-8.11-2.85-5.35-9.85-5.61-15.51-.22-4.76,2.39-7.88,6.66-8.04,7.63-.29,15.3-.41,22.92.04,5.63.33,7.01,4.32,6.45,16.01-.24,4.84-2.75,7.52-7.5,7.72-3.6.15-7.21.03-10.82.03v.04-.02Zm.33-7.96c2.44,0,4.89-.12,7.32.03,3.3.21,2.81-2.06,2.8-4.02,0-1.92.59-4.18-2.73-4.08-4.88.14-9.76.13-14.64,0-2.42-.07-2.73,1.13-2.85,3.15-.2,3.37.26,5.68,4.52,4.99,1.86-.16,3.73-.18,5.59-.06h-.01Z"/>
        <path class="cls-3" d="m249.47,147.72c-3.03,0-6.06.03-9.09,0-1.15.09-2.31-.02-3.42-.35-8.01-3.34-4.87-10.47-5.13-16.24-.2-4.51,2.79-7.24,7.37-7.36,7.06-.18,14.13-.17,21.2.05,4.62.14,7.12,2.86,7.3,7.43.12,3.03.12,6.07-.01,9.09-.19,4.5-2.84,7.15-7.4,7.34-3.6.15-7.21.03-10.82.04h0Zm.07-7.93h0c2.44,0,4.9-.17,7.32.02,3.6.28,2.92-2.19,3-4.27.09-2.14.15-3.99-2.99-3.85-4.44.2-8.91.21-13.35,0-3-.15-3.89.83-3.94,3.85-.06,3.39.95,4.72,4.36,4.3,1.86-.13,3.73-.14,5.6-.04h0Z"/>
        <path class="cls-3" d="m93.96,131.74c-6.48,0-12.97,0-19.45,0-2.89,0-5.36-.68-5.33-4.15.04-3.25,2.45-3.87,5.14-3.87h39.33c2.67,0,5.08.61,5.1,3.9.01,3.5-2.47,4.13-5.34,4.12-6.48-.02-12.97,0-19.45,0Z"/>
        <path class="cls-3" d="m93.98,150.8h-19.45c-2.87,0-5.37-.63-5.35-4.12.02-3.27,2.46-3.89,5.12-3.89,13.11,0,26.22,0,39.33,0,2.68,0,5.09.62,5.12,3.88.03,3.48-2.44,4.15-5.33,4.14-6.48-.02-12.96,0-19.45,0h.01Z"/>
        <path class="cls-3" d="m93.97,161.86h19.44c2.83,0,5.45.53,5.34,4.08-.1,3.48-2.73,3.94-5.55,3.94-12.82,0-25.64,0-38.45,0-2.8,0-5.48-.44-5.55-3.93-.08-3.86,2.85-4.1,5.76-4.1h19.01Z"/>
        <g>
            <path class="cls-2" d="m0,254.23c.14-.72.25-1.44.41-2.15.94-4.18,3.39-7.87,6.87-10.36,3.72-2.73,8.05-4.51,12.62-5.18,3.37-.42,6.78-.54,10.17-.35,3.42.03,6.84.04,10.26.05,7.28.03,14.56.06,21.84.09,1.88,0,3.76.02,5.65.02,7.24.03,14.48.06,21.72.09,1.81,0,3.61,0,5.42.02,7.72.04,15.43.08,23.15.11,4.92.02,9.84.12,14.76.04,3.69.02,7.36-.55,10.87-1.69,2.21-.63,4.16-1.94,5.59-3.74,2.84-3.96,2.19-9.43-1.5-12.62-2.49-2.09-5.55-3.38-8.79-3.7-3.79-.51-7.64.08-11.11,1.69-.1.04-.2.06-.3.09-2.36.92-5.01-.24-5.94-2.6-.81-2.08-.01-4.44,1.89-5.59,1.58-.88,3.31-1.48,5.1-1.76,1.7-.45,3.46-.64,5.2-.95.1-.03.2-.07.29-.11h4.45c.76.12,1.52.23,2.27.35,5.52.7,10.62,3.29,14.45,7.33,2.8,2.95,4.47,6.8,4.73,10.86.51,5.48-1.51,10.9-5.49,14.71-2.35,2.21-5.19,3.84-8.28,4.76-3.1,1.02-6.33,1.63-9.6,1.81-3.11.17-6.22.29-9.34.3-6.1.02-12.2-.06-18.3-.1-4.87-.03-9.73-.06-14.6-.09-3.67-.02-7.34,0-11.01-.02-6.82-.03-13.65-.06-20.47-.09-2.03,0-4.07,0-6.1-.02-14.92-.08-19.03-.09-21.55-.11-1.91-.02-4.94-.05-8.7-.1-9.66-.35-16.54,5.69-16.7,10.6-.17,5.22,7.14,12.28,17.79,11.44,8.1,0,14.64.02,19.16.04,6.84.03,13.69.06,20.53.09,1.79,0,3.57.02,5.36.02,7.24.03,14.48.06,21.73.09,1.92,0,3.84.02,5.76.02,7.09.03,14.18.06,21.27.09,1.39,0,2.78.01,4.16.02,7.62.03,15.24.06,22.87.09,1.73,0,3.46,0,5.19.02,2.68.02,5.36-.04,8.04.11,6.78.2,13.31,2.61,18.6,6.85,3.65,2.82,6.19,6.83,7.16,11.34,1.03,4.96-.05,10.13-3,14.26-3.42,5.06-8.31,8.07-14.1,9.72-3.06.86-6.23,1.23-9.41,1.11-4.36-.13-8.65-1.15-12.6-2.99-.21-.1-.41-.2-.61-.31-.03-.02-.05-.06-.12-.14-2.18-1.15-3.01-3.85-1.86-6.03,1.12-2.12,3.71-2.97,5.87-1.94.81.38,1.65.72,2.5,1.01,5.67,2.1,11.94,1.8,17.38-.83,2.25-1.07,4.16-2.73,5.53-4.8,2.68-3.77,2.19-8.94-1.15-12.14-2.92-2.9-6.65-4.84-10.7-5.57-1.95-.4-3.95-.59-5.94-.57-5.55,0-11.1-.01-16.65-.03-6.82-.02-13.65-.05-20.47-.09-2.09,0-4.18-.01-6.27-.02-6.94-.03-13.88-.06-20.81-.09-1.29,0-2.59-.02-3.88-.02-7.72-.03-15.43-.06-23.15-.09-2.03,0-4.07-.02-6.1-.02-6.99-.03-13.99-.06-20.98-.09-2.09,0-4.18,0-6.27-.02-3.14-.02-6.27.04-9.4-.11-6.16-.13-12.14-2.1-17.17-5.65-3.84-2.63-6.56-6.59-7.64-11.11-.19-.81-.27-1.65-.41-2.47-.03-.12-.07-.24-.11-.36v-2.4l-.03-.02Z"/>
            <path class="cls-2" d="m99.55,318.03c-.53-.09-1.06-.16-1.58-.26-3.75-.71-7.15-2.69-9.63-5.6-.43-.48-.84-1-1.25-1.51-.05-.08-.1-.17-.14-.26-.7-1.51-.38-3.29.79-4.46,1.07-1,2.73-1,3.8,0,.23.26.58.63.99,1.09.33.36.66.71,1,1.03,3.82,3.62,9.72,3.89,13.85.64,1.39-1.06,2.39-2.55,2.85-4.24.66-2.18.15-4.54-1.35-6.26-1.34-1.53-3.14-2.59-5.13-3.03-1.02-.26-2.07-.38-3.13-.36-18.35,0-36.7.01-55.05,0h-.51c-1.82-.23-3.13-1.84-3-3.67.02-1.71,1.3-3.14,3-3.34l.4-.02c18.75,0,37.49-.06,56.24.04,4.6-.02,8.94,2.1,11.77,5.72,1.86,2.26,2.94,5.06,3.08,7.99.32,4.14-1.1,8.22-3.92,11.27-2.34,2.64-5.53,4.39-9.01,4.96-.54.1-1.08.17-1.62.26h-2.46,0Z"/>
            <path class="cls-2" d="m13.91,287.76h17.68c2.04,0,3.7,1.65,3.7,3.7h0c0,2.04-1.66,3.7-3.7,3.7H13.91c-2.04,0-3.7-1.65-3.7-3.7h0c0-2.04,1.66-3.7,3.7-3.7Z"/>
            <path class="cls-2" d="m31.65,300.99h14.64c1.69,0,3.06,1.37,3.06,3.06h0c0,1.69-1.37,3.06-3.06,3.06h-14.64c-1.69,0-3.06-1.37-3.06-3.06h0c0-1.69,1.37-3.06,3.06-3.06Z"/>
        </g>
        <path class="cls-2" d="m295.75,96.05H103.65C103.65,43.36,147.01,0,199.7,0s96.05,43.36,96.05,96.05Z"/>
        <path class="cls-4" d="m266.38,95.83h-133.66c-.02-36.91,29.89-66.84,66.8-66.86,36.91-.02,66.84,29.89,66.86,66.8v.06h0Z"/>
        <path class="cls-5" d="m241.6,95.83h-84.04c0-23.21,18.81-42.02,42.02-42.02s42.02,18.81,42.02,42.02Z"/>
    </g>
    <text class="cls-6" transform="translate(420.41 193.07)"><tspan x="0" y="0">Сис</tspan><tspan class="cls-1" x="227.69" y="0">т</tspan><tspan x="285.07" y="0">емы Клим</tspan><tspan class="cls-7" x="913.62" y="0">ат</tspan><tspan x="1044.76" y="0">а</tspan></text>
</svg>