<svg width="130" height="36" viewBox="0 0 130 36" fill="none" xmlns="http://www.w3.org/2000/svg">
<path fill-rule="evenodd" clip-rule="evenodd" d="M104.453 1.71341L100.956 3.48356L102.346 3.83996C103.657 4.17614 105.131 5.31005 106.169 6.78148C106.512 7.26783 106.535 7.25839 106.555 6.62539C106.566 6.2547 106.918 4.62555 107.336 3.00503C107.754 1.38478 108.063 0.0327782 108.023 0.000966317C107.983 -0.0311152 106.376 0.739646 104.453 1.71341ZM58.8905 0.780627C53.1058 3.61782 53.3069 3.49138 54.2979 3.67066C55.6848 3.92165 56.4142 4.34437 57.7327 5.66106L58.9368 6.86398L59.2824 5.59905C59.4722 4.90323 59.7818 3.60595 59.9701 2.7163C60.1584 1.82664 60.3813 0.886305 60.4653 0.626957C60.6624 0.018757 60.3896 0.0454486 58.8905 0.780627ZM32.6744 17.7776V27.6536H35.4245H38.1746L38.2608 24.3511L38.3469 21.0486L39.4894 20.9653L40.6315 20.882L42.5498 24.2678L44.468 27.6536H47.6164C49.3482 27.6536 50.765 27.5732 50.765 27.4751C50.765 27.377 50.1628 26.376 49.4263 25.251C48.6902 24.126 47.6617 22.533 47.1408 21.7112L46.194 20.2171L47.4505 19.1501C49.1363 17.7186 49.6244 16.6079 49.6017 14.2557C49.5787 11.8768 48.963 10.6224 47.2981 9.56206C45.4648 8.39445 44.365 8.21005 38.2703 8.04938L32.6744 7.90164V17.7776ZM54.5211 8.15181C54.2246 8.25722 54.1379 10.4768 54.1379 17.9706V27.6536H57.0508H59.9637V17.8135V7.97335L57.434 7.99465C56.0426 8.00624 54.7321 8.07714 54.5211 8.15181ZM63.6431 10.1258V12.2868H66.556H69.4689V19.9702V27.6536H72.2285H74.9881V19.9702V12.2868H78.0671H81.1462L81.0567 10.1975L80.9672 8.10814L72.3051 8.03643L63.6431 7.96499V10.1258ZM82.8581 8.15316C82.7456 8.25183 82.6536 9.22237 82.6536 10.3099V12.2868H86.6396C89.1297 12.2868 90.6257 12.3895 90.6257 12.5602C90.6257 12.7106 88.7863 15.2885 86.5378 18.289C81.5212 24.9844 81.7337 24.6304 81.7337 26.2878V27.6536H89.8591H97.9846V25.6316V23.6097H93.5386C90.7894 23.6097 89.0926 23.5073 89.0926 23.3412C89.0926 23.1932 91.043 20.494 93.427 17.3428L97.7611 11.6128L97.9076 9.7931L98.0539 7.97335H90.5582C86.4354 7.97335 82.9703 8.05422 82.8581 8.15316ZM101.962 8.16503C101.958 8.28203 101.923 12.7147 101.886 18.0157L101.817 27.6536H104.657H107.497L107.417 17.8809L107.337 8.10814L104.654 8.03023C103.178 7.98737 101.967 8.04802 101.962 8.16503ZM112.907 8.15316C112.794 8.25183 112.702 12.6799 112.702 17.9933V27.6536H115.615H118.528V24.5533V21.453L120.445 21.4497C123.376 21.4449 126.286 20.642 127.913 19.3892C129.528 18.1456 130.364 15.3734 129.848 12.9789C129.245 10.1837 127.193 8.68157 123.383 8.24672C120.804 7.95232 113.212 7.88438 112.907 8.15316ZM14.2803 15.0038C6.60895 18.4144 0.19967 21.3214 0.0377742 21.4637C-0.150184 21.629 0.368619 21.7226 1.47521 21.7226C3.79694 21.7226 7.54813 22.8025 9.86097 24.137C13.6548 26.3258 17.287 30.1554 19.2006 33.9836C20.1886 35.9605 20.7101 36.4938 20.7221 35.5392C20.7255 35.2798 21.5592 32.3377 22.5747 29.0015C24.5383 22.5529 26.4982 16.0501 27.6137 12.2847C27.9874 11.0232 28.3916 9.71896 28.5115 9.38655C28.6317 9.05414 28.6169 8.78671 28.479 8.79264C28.3413 8.7983 21.9519 11.5934 14.2803 15.0038ZM43.3617 12.6559C44.2488 13.3617 44.4597 14.5126 43.8823 15.4942C43.2317 16.6008 42.4716 16.906 40.236 16.9597L38.3469 17.0047L38.2583 14.481L38.1697 11.9571L40.4543 12.0587C42.1229 12.1329 42.9067 12.2938 43.3617 12.6559ZM123.678 12.6416C124.538 13.3253 124.733 14.5438 124.178 15.7624C123.599 17.0346 122.729 17.4091 120.353 17.4091H118.528V14.6838V11.9582L120.801 12.0593C122.431 12.1315 123.244 12.296 123.678 12.6416Z" fill="#E56455"/>
</svg>
