<svg xmlns="http://www.w3.org/2000/svg" xmlns:xlink="http://www.w3.org/1999/xlink" version="1.1" x="0px" y="0px" viewBox="20 0 50 88" enable-background="new 0 0 90 90" xml:space="preserve"><path d="M75.654,59.634c-1.179,1.461-2.91,2.22-4.655,2.22c-0.247,0-0.493-0.02-0.739-0.051c-0.033,1.305-0.488,2.554-1.318,3.582  c-0.999,1.238-2.425,2.014-4.015,2.183c-0.217,0.023-0.434,0.035-0.65,0.035c-0.49,0-0.972-0.062-1.439-0.178  c-0.131,1.07-0.552,2.116-1.277,3.015c-0.999,1.238-2.425,2.014-4.016,2.183c-0.217,0.023-0.434,0.035-0.65,0.035  c-1.361,0-2.667-0.458-3.736-1.321l-0.222-0.179c-0.186,0.648-0.501,1.271-0.951,1.828c-1.026,1.272-2.534,1.933-4.053,1.933  c-1.113,0-2.232-0.354-3.175-1.083l-0.146-0.091l-0.501,0.642c-1.283,1.644-3.677,1.939-5.321,0.657  c-1.407-1.098-1.822-3.008-1.11-4.567l-0.253,0.324c-1.373,1.76-3.936,2.076-5.696,0.703c-1.409-1.099-1.891-2.962-1.323-4.564  c-1.424,1.433-3.744,1.611-5.374,0.339l-0.12-0.094c-1.607-1.254-2.009-3.501-1.021-5.221c-1.558,1.276-3.858,1.358-5.508,0.07  c-1.911-1.491-2.255-4.275-0.763-6.187l2.094-2.683l-5.516-7.192c-0.382-0.498-0.454-1.168-0.186-1.736l1.03-2.185l5.535,6.727  l1.381,1.801c1.549-1.114,3.715-1.134,5.29,0.095c1.911,1.491,2.255,4.275,0.763,6.187l-0.224,0.287  c1.428-1.054,3.447-1.082,4.911,0.06l0.12,0.094c1.515,1.182,1.959,3.245,1.178,4.919c1.431-1.087,3.477-1.127,4.956,0.027  c1.461,1.14,1.924,3.099,1.254,4.738l0.41,0.242c1.249-0.575,2.77-0.454,3.924,0.446h0c0.95,0.741,1.446,1.854,1.451,2.979  l0.62,0.387c0.057,0.036,0.113,0.075,0.165,0.118c0.793,0.64,1.958,0.515,2.598-0.278c0.64-0.793,0.515-1.958-0.278-2.598  c-0.008-0.007-0.017-0.014-0.025-0.021l-6.737-5.657c-0.018-0.015-0.034-0.032-0.051-0.047c-0.021-0.019-0.043-0.038-0.063-0.059  c-0.019-0.02-0.037-0.04-0.056-0.061c-0.019-0.021-0.039-0.042-0.057-0.065c-0.017-0.021-0.033-0.043-0.049-0.065  c-0.017-0.023-0.034-0.045-0.049-0.068c-0.015-0.023-0.028-0.047-0.042-0.07c-0.014-0.023-0.028-0.047-0.041-0.071  c-0.013-0.025-0.024-0.05-0.035-0.075c-0.011-0.024-0.023-0.048-0.033-0.073c-0.01-0.026-0.019-0.052-0.028-0.077  c-0.009-0.025-0.018-0.05-0.025-0.075c-0.008-0.026-0.014-0.053-0.02-0.079c-0.006-0.026-0.013-0.051-0.018-0.077  c-0.005-0.027-0.009-0.054-0.012-0.08c-0.004-0.026-0.008-0.053-0.011-0.079c-0.003-0.027-0.003-0.053-0.005-0.08  c-0.001-0.027-0.003-0.054-0.003-0.081c0-0.027,0.002-0.053,0.003-0.08c0.001-0.027,0.002-0.054,0.005-0.081  c0.003-0.027,0.007-0.053,0.011-0.08c0.004-0.027,0.007-0.054,0.012-0.08c0.005-0.027,0.012-0.053,0.019-0.079  c0.006-0.026,0.012-0.052,0.02-0.078c0.008-0.027,0.018-0.053,0.027-0.079c0.009-0.025,0.017-0.05,0.027-0.075  c0.011-0.027,0.024-0.053,0.036-0.079c0.011-0.024,0.022-0.047,0.034-0.071c0.014-0.027,0.03-0.052,0.046-0.078  c0.013-0.022,0.026-0.044,0.04-0.066c0.017-0.026,0.036-0.05,0.055-0.075c0.013-0.017,0.024-0.035,0.037-0.051  c0.003-0.004,0.007-0.007,0.01-0.011c0.004-0.005,0.007-0.009,0.011-0.014c0.016-0.019,0.033-0.036,0.05-0.054  c0.018-0.02,0.036-0.041,0.055-0.06c0.021-0.021,0.043-0.04,0.066-0.06c0.02-0.018,0.039-0.036,0.06-0.052  c0.023-0.019,0.047-0.035,0.071-0.053c0.021-0.015,0.042-0.031,0.063-0.045c0.025-0.016,0.05-0.031,0.076-0.045  c0.022-0.013,0.043-0.026,0.066-0.038c0.026-0.014,0.053-0.026,0.08-0.038c0.023-0.01,0.045-0.021,0.068-0.031  c0.027-0.011,0.055-0.02,0.082-0.03c0.023-0.008,0.047-0.017,0.07-0.024c0.027-0.008,0.055-0.014,0.083-0.021  c0.025-0.006,0.049-0.013,0.074-0.017c0.027-0.005,0.054-0.009,0.082-0.013c0.026-0.004,0.052-0.008,0.078-0.011  c0.027-0.003,0.053-0.003,0.08-0.005c0.027-0.001,0.054-0.003,0.081-0.003c0.026,0,0.052,0.002,0.078,0.003  c0.028,0.001,0.056,0.002,0.083,0.005c0.025,0.002,0.051,0.007,0.076,0.01c0.028,0.004,0.056,0.008,0.084,0.013  c0.025,0.005,0.05,0.012,0.075,0.018c0.028,0.007,0.055,0.013,0.083,0.021c0.025,0.008,0.05,0.017,0.075,0.026  c0.026,0.009,0.053,0.018,0.079,0.029c0.026,0.01,0.05,0.023,0.076,0.034c0.025,0.012,0.05,0.023,0.074,0.036  c0.025,0.013,0.05,0.029,0.075,0.044c0.023,0.014,0.047,0.027,0.069,0.042c0.025,0.016,0.048,0.035,0.072,0.053  c0.018,0.013,0.036,0.025,0.054,0.039l10.797,8.714c0.541,0.436,1.224,0.636,1.923,0.561c0.699-0.075,1.325-0.414,1.761-0.955  c0.834-1.034,0.75-2.512-0.142-3.45l-9.065-7.315c-0.075-0.06-0.141-0.126-0.202-0.196l-2.222-1.794  c-0.721-0.582-0.834-1.638-0.252-2.358c0.582-0.721,1.638-0.834,2.358-0.252l11.238,9.07c0.14,0.113,0.273,0.232,0.4,0.355  l1.583,1.278c0.541,0.437,1.226,0.635,1.923,0.561c0.699-0.075,1.325-0.414,1.761-0.955c0.907-1.124,0.731-2.777-0.393-3.684  L51.995,48.342c-0.721-0.582-0.834-1.638-0.252-2.358c0.582-0.721,1.638-0.834,2.358-0.252l12.323,9.945l2.934,2.244  c0.541,0.436,1.222,0.636,1.923,0.561c0.699-0.075,1.325-0.414,1.761-0.955c0.436-0.541,0.636-1.224,0.561-1.923  c-0.075-0.699-0.414-1.325-0.955-1.761L44.327,30.624c-2.297,1.262-4.075,3.792-4.075,3.792  c-5.247,13.691-10.986,5.903-10.986,5.903c1.64-2.132,3.115-11.642,3.115-11.642c0.912-1.621,3.306-3.203,5.901-4.52l-4.836-0.196  l0.008-0.015l-9.578-0.632l0.959-2.034c0.287-0.61,0.912-0.986,1.585-0.961l19.372,0.784c0.526-0.163,0.91-0.265,1.101-0.297  c11.264-1.882,17.298,2.869,17.298,2.869l11.478,23.201l-1.89,3.554l0.988,0.81C77.32,53.302,77.723,57.07,75.654,59.634z   M21.237,17.249l-6.061-2.864c-1.182-0.559-2.594-0.053-3.152,1.129L1.577,37.621c-0.559,1.182-0.053,2.594,1.129,3.152l6.061,2.864  c1.182,0.559,2.594,0.053,3.152-1.129l10.446-22.107C22.925,19.219,22.42,17.808,21.237,17.249z M88.415,40.136L77.803,18.108  c-0.568-1.178-1.983-1.673-3.161-1.105l-6.04,2.91c-1.178,0.568-1.673,1.983-1.105,3.161L78.109,45.1  c0.568,1.178,1.983,1.673,3.161,1.105l6.04-2.91C88.487,42.729,88.982,41.314,88.415,40.136z"/></svg>