<svg xmlns="http://www.w3.org/2000/svg" data-name="Layer 1" viewBox="25 15 50 70" x="0px" y="0px"><path d="M78,52H73.87A9.26,9.26,0,0,0,65,58.47L60.36,73.1A1.29,1.29,0,0,1,57.88,73l-9-36a9.28,9.28,0,0,0-9-7h-.16a9.34,9.34,0,0,0-8.92,6.71L26.63,51.07a1.3,1.3,0,0,1-1.24.93H22a4,4,0,0,0,0,8h3.39a9.34,9.34,0,0,0,8.92-6.71l4.16-14.36A1.3,1.3,0,0,1,39.71,38h.16a1.29,1.29,0,0,1,1.25,1l9,36A9.29,9.29,0,0,0,68,75.53L72.64,60.9a1.29,1.29,0,0,1,1.23-.9H78a4,4,0,0,0,0-8Z"/><path d="M78,28H72V22a4,4,0,0,0-8,0v6H58a4,4,0,0,0,0,8h6v6a4,4,0,0,0,8,0V36h6a4,4,0,0,0,0-8Z"/></svg>