<svg xmlns="http://www.w3.org/2000/svg" data-name="Layer 1" viewBox="25 11 50 78" x="0px" y="0px"><title>Artboard 5</title><path d="M27.6,77.64A57.61,57.61,0,0,0,50,82a57.62,57.62,0,0,0,22.4-4.36A15.84,15.84,0,0,0,82,63V62a8,8,0,0,0-8-8H64a8,8,0,0,0-8,8V73.67a54.62,54.62,0,0,1-12,0V62a8,8,0,0,0-8-8H26a8,8,0,0,0-8,8v1A15.84,15.84,0,0,0,27.6,77.64ZM64,62H74v1a7.86,7.86,0,0,1-4.72,7.3A44.3,44.3,0,0,1,64,72.12ZM26,62H36V72.12a44.31,44.31,0,0,1-5.28-1.84A7.86,7.86,0,0,1,26,63Z"/><path d="M38.69,38.69a4,4,0,0,0,0,5.65h0a4,4,0,0,0,5.66,0h0a8,8,0,0,1,11.31,0,4,4,0,0,0,5.66,0h0a4,4,0,0,0,0-5.66A16,16,0,0,0,38.69,38.69Z"/><path d="M27.17,33a4,4,0,0,0,5.66,0h0a23.84,23.84,0,0,1,17-7h.4a23.84,23.84,0,0,1,17,7h0a4,4,0,0,0,5.66,0h0a4,4,0,0,0,0-5.66A31.79,31.79,0,0,0,50.2,18h-.4a31.79,31.79,0,0,0-22.63,9.37,4,4,0,0,0,0,5.66Z"/></svg>