<svg xmlns="http://www.w3.org/2000/svg" data-name="Layer 1" viewBox="18 17 65 65" x="0px" y="0px"><path d="M75.49,75.83A12,12,0,0,0,79,67.34V30.82A12.83,12.83,0,0,0,66.18,18H33.82A12.83,12.83,0,0,0,21,30.82V67.34a11.92,11.92,0,0,0,3.52,8.49L27.64,79a10.41,10.41,0,0,0,14.72,0l.14-.14.14.14a10.41,10.41,0,0,0,14.72,0l.14-.14.14.14a10.41,10.41,0,0,0,14.72,0ZM71,67.34a4,4,0,0,1-1.17,2.83l-3.12,3.12a2.41,2.41,0,0,1-3.42,0l-3.23-3.23a3.62,3.62,0,0,0-5.12,0l-3.23,3.23a2.41,2.41,0,0,1-3.42,0l-3.23-3.23a3.62,3.62,0,0,0-5.12,0l-3.23,3.23a2.41,2.41,0,0,1-3.42,0l-3.12-3.12A4,4,0,0,1,29,67.34V30.82A4.82,4.82,0,0,1,33.82,26H66.18A4.82,4.82,0,0,1,71,30.82Z"/><path d="M50.66,43H57a4,4,0,0,0,0-8H47A10,10,0,0,0,37,45V55a4,4,0,0,0,8,0V48.66L56.17,59.83a4,4,0,0,0,5.66-5.66Z"/></svg>