<svg xmlns="http://www.w3.org/2000/svg" data-name="Layer 1" viewBox="25 15 50 70" x="0px" y="0px"><path d="M73.17,58.83a4,4,0,0,0,5.66,0A12.72,12.72,0,0,0,82,50a12.72,12.72,0,0,0-3.17-8.83,4,4,0,1,0-5.66,5.66,6.49,6.49,0,0,1,0,6.34A4,4,0,0,0,73.17,58.83Z"/><path d="M30,67h4A28.1,28.1,0,0,0,57,79a8,8,0,0,0,8-7.53l9.17,9.34a4,4,0,1,0,5.71-5.61L65,60.07V29a8,8,0,0,0-8-8,28.09,28.09,0,0,0-21,9.53L24.85,19.2a4,4,0,0,0-5.71,5.61l8.32,8.47A12,12,0,0,0,18,45V55A12,12,0,0,0,30,67ZM57,29V51.93L41.61,36.26A20.07,20.07,0,0,1,57,29ZM26,45a4,4,0,0,1,4-4h5.05L57,63.34V71A20.08,20.08,0,0,1,39.68,61a4,4,0,0,0-3.46-2H30a4,4,0,0,1-4-4Z"/></svg>