<svg xmlns="http://www.w3.org/2000/svg" data-name="Layer 1" viewBox="25 15 50 70" x="0px" y="0px"><path d="M30,67h4A28.1,28.1,0,0,0,57,79a8,8,0,0,0,8-8V29a8,8,0,0,0-8-8A28.1,28.1,0,0,0,34,33H30A12,12,0,0,0,18,45V55A12,12,0,0,0,30,67ZM26,45a4,4,0,0,1,4-4h6.22a4,4,0,0,0,3.46-2A20.08,20.08,0,0,1,57,29V71A20.08,20.08,0,0,1,39.68,61a4,4,0,0,0-3.46-2H30a4,4,0,0,1-4-4Z"/><path d="M78.83,58.83A12.72,12.72,0,0,0,82,50a12.72,12.72,0,0,0-3.17-8.83,4,4,0,1,0-5.66,5.66,6.49,6.49,0,0,1,0,6.34,4,4,0,0,0,5.66,5.66Z"/></svg>